#!OML:ASF F:\twosubjects\two\Thursday\Session 1\Rory.ASF
:FULLY-SPECIFIED
:DEGREES
276
root 7.56834 10.5598 7.83119 161.102 -4.00721 -178.574
lowerback 32.3129 1.41591 1.89873
upperback 11.5226 -1.13133 -1.33453
thorax -4.54268 -1.92177 -2.08169
lowerneck -15.1054 -3.84163 -4.42231
upperneck 9.27813 -4.74177 3.83466
head 5.45473 -2.19781 1.48875
rclavicle -9.54166e-015 -1.98785e-014
rhumerus 22.2783 10.581 -83.9544
rradius 62.1377
rwrist 26.5935
rhand -22.0051 25.4351
rfingers 7.12502
rthumb 4.40388 -4.49909
lclavicle -9.54166e-015 -1.98785e-014
lhumerus 26.09 -21.0653 73.957
lradius 60.313
lwrist -22.4155
lhand -20.6959 20.503
lfingers 7.12502
lthumb 5.66794 50.4072
rfemur -57.807 -13.5346 -7.3038
rtibia 108.92
rfoot -20.0718 -2.64584
rtoes -22.5488
lfemur -52.152 22.9632 11.3754
ltibia 113.063
lfoot -27.1023 -5.29114
ltoes -16.2067
277
root 7.56806 10.5623 7.82502 161.203 -3.89135 -178.357
lowerback 32.3078 1.33968 2.16771
upperback 11.5293 -1.15094 -1.34065
thorax -4.531 -1.92623 -2.23787
lowerneck -15.4838 -3.89106 -4.36733
upperneck 9.49518 -4.82529 3.94139
head 5.59009 -2.2236 1.49865
rclavicle 1.76918e-014 2.62396e-014
rhumerus 22.4694 10.5544 -84.0289
rradius 62.0639
rwrist 26.4574
rhand -22.0735 25.6999
rfingers 7.12502
rthumb 4.33778 -4.23568
lclavicle 1.76918e-014 2.62396e-014
lhumerus 26.3189 -20.4921 74.6441
lradius 59.656
lwrist -23.5304
lhand -20.1035 20.6968
lfingers 7.12502
lthumb 6.2399 50.5849
rfemur -57.9096 -13.401 -6.96933
rtibia 108.908
rfoot -20.0448 -2.83056
rtoes -22.4887
lfemur -52.135 23.0969 11.8093
ltibia 113.101
lfoot -26.9391 -6.16427
ltoes -13.2682
278
root 7.56805 10.5645 7.82427 161.232 -3.92284 -178.253
lowerback 32.4493 1.25183 2.35175
upperback 11.5165 -1.2161 -1.39884
thorax -4.61083 -1.95564 -2.38423
lowerneck -15.683 -3.90323 -4.25178
upperneck 9.59921 -4.86886 3.99031
head 5.65592 -2.23431 1.48776
rclavicle 1.31198e-014 1.35174e-014
rhumerus 22.8073 10.4433 -84.1673
rradius 61.703
rwrist 26.3534
rhand -21.9065 26.2491
rfingers 7.12502
rthumb 4.49902 -3.68309
lclavicle 1.31198e-014 1.35174e-014
lhumerus 26.2809 -20.756 74.0006
lradius 59.7732
lwrist -23.1198
lhand -19.7744 21.4694
lfingers 7.12502
lthumb 6.55758 51.3479
rfemur -57.895 -13.4361 -6.85196
rtibia 108.904
rfoot -19.9888 -2.94096
rtoes -22.7546
lfemur -52.1656 23.0862 11.9613
ltibia 113.124
lfoot -26.8167 -6.63961
ltoes -11.1945
279
root 7.56733 10.5611 7.82204 161.324 -4.03391 -178.141
lowerback 32.3604 1.2102 2.42775
upperback 11.5457 -1.23943 -1.3256
thorax -4.53753 -1.96476 -2.3406
lowerneck -15.5984 -3.91448 -4.41604
upperneck 9.47176 -4.87725 4.19926
head 5.6119 -2.23111 1.58118
rclavicle 9.93923e-015 7.95139e-015
rhumerus 23.2395 10.2434 -84.1977
rradius 61.235
rwrist 26.3284
rhand -21.7933 26.635
rfingers 7.12502
rthumb 4.60834 -3.29489
lclavicle 9.93923e-015 7.95139e-015
lhumerus 26.4757 -20.9594 73.561
lradius 59.4988
lwrist -22.6752
lhand -20.0983 21.1717
lfingers 7.12502
lthumb 6.24494 51.0597
rfemur -57.8683 -13.6169 -6.79696
rtibia 108.897
rfoot -19.9637 -2.8571
rtoes -22.7506
lfemur -52.4015 23.071 11.9794
ltibia 113.161
lfoot -26.7647 -6.74445
ltoes -11.4929
280
root 7.56683 10.5562 7.81538 161.422 -4.05615 -178.113
lowerback 32.2298 1.23865 2.39354
upperback 11.554 -1.19932 -1.2503
thorax -4.46711 -1.94269 -2.25319
lowerneck -15.4119 -3.95361 -4.70141
upperneck 9.35052 -4.91996 4.54072
head 5.56148 -2.24086 1.73389
rclavicle 1.0138e-014 1.03368e-014
rhumerus 23.4693 10.1502 -84.0812
rradius 61.0048
rwrist 26.3096
rhand -21.7141 26.6226
rfingers 7.12502
rthumb 4.68481 -3.30559
lclavicle 1.0138e-014 1.03368e-014
lhumerus 26.8542 -20.7304 73.9798
lradius 58.9632
lwrist -22.7504
lhand -19.9576 20.5224
lfingers 7.12502
lthumb 6.38071 50.4063
rfemur -57.9015 -13.6412 -6.79771
rtibia 108.904
rfoot -19.9733 -2.76971
rtoes -22.5095
lfemur -52.5822 23.1357 11.9586
ltibia 113.205
lfoot -26.7631 -6.59506
ltoes -12.6884
281
root 7.56954 10.5588 7.81153 161.39 -3.94233 -178.234
lowerback 32.29 1.34141 2.20699
upperback 11.5815 -1.14375 -1.24099
thorax -4.46062 -1.92838 -2.15325
lowerneck -15.355 -3.93778 -4.75294
upperneck 9.31617 -4.89628 4.5937
head 5.54296 -2.22835 1.76219
rclavicle 2.14687e-014 1.11319e-014
rhumerus 23.5653 10.2755 -83.8978
rradius 60.984
rwrist 26.2607
rhand -21.3873 26.6749
rfingers 7.12502
rthumb 5.0004 -3.24613
lclavicle 2.14687e-014 1.11319e-014
lhumerus 27.1808 -20.3703 74.4922
lradius 58.5807
lwrist -22.9319
lhand -19.6156 20.4453
lfingers 7.12502
lthumb 6.71095 50.3189
rfemur -57.9823 -13.4453 -6.85795
rtibia 108.951
rfoot -20.0659 -2.72654
rtoes -21.7673
lfemur -52.4179 23.2622 11.9253
ltibia 113.195
lfoot -26.7825 -6.60072
ltoes -12.9714
282
root 7.57452 10.562 7.81026 161.416 -3.66824 -178.359
lowerback 32.2598 1.50433 1.99615
upperback 11.6285 -1.02403 -1.23351
thorax -4.38903 -1.88443 -2.06549
lowerneck -15.2585 -3.94763 -4.61366
upperneck 9.10188 -4.9125 4.41916
head 5.45218 -2.24635 1.68571
rclavicle 1.0138e-014 -1.59028e-014
rhumerus 23.8902 10.2776 -83.8864
rradius 60.6294
rwrist 26.3906
rhand -21.2946 27.0467
rfingers 7.12502
rthumb 5.08986 -2.87221
lclavicle 1.0138e-014 -1.59028e-014
lhumerus 27.2698 -20.1476 74.7093
lradius 58.6618
lwrist -23.0414
lhand -19.8538 20.5136
lfingers 7.12502
lthumb 6.481 50.3944
rfemur -58.2425 -13.1824 -6.79719
rtibia 108.993
rfoot -20.0703 -2.80599
rtoes -21.5363
lfemur -52.1757 23.6452 12.0133
ltibia 113.176
lfoot -26.7776 -6.86291
ltoes -12.8203
283
root 7.57526 10.5622 7.80943 161.579 -3.57765 -178.517
lowerback 32.1077 1.59138 1.85328
upperback 11.639 -0.952499 -1.25704
thorax -4.30854 -1.84872 -2.03647
lowerneck -15.0749 -3.96431 -4.55609
upperneck 8.78636 -4.9339 4.33367
head 5.32018 -2.2653 1.65199
rclavicle -1.98785e-016 -8.74653e-015
rhumerus 24.3509 10.0928 -83.9468
rradius 59.8893
rwrist 26.7748
rhand -21.8522 27.0518
rfingers 7.12502
rthumb 4.55144 -2.87935
lclavicle -1.98785e-016 -8.74653e-015
lhumerus 27.8712 -20.3826 74.2983
lradius 57.7982
lwrist -22.7043
lhand -20.3257 20.6525
lfingers 7.12502
lthumb 6.02538 50.5468
rfemur -58.5065 -13.1917 -6.88269
rtibia 109.008
rfoot -20.0086 -2.83899
rtoes -21.9233
lfemur -52.2826 23.8987 11.8294
ltibia 113.187
lfoot -26.764 -6.60463
ltoes -13.7559
284
root 7.57188 10.5697 7.80937 161.569 -3.78681 -178.661
lowerback 32.1901 1.56017 1.79521
upperback 11.6811 -1.02918 -1.28826
thorax -4.30171 -1.89313 -2.01094
lowerneck -15.1007 -3.93418 -4.4917
upperneck 8.65177 -4.89268 4.25984
head 5.27666 -2.24892 1.62274
rclavicle -1.45113e-014 -2.78299e-014
rhumerus 24.6542 9.96412 -83.8782
rradius 59.3762
rwrist 26.9098
rhand -22.3454 26.8005
rfingers 7.12502
rthumb 4.07523 -3.14031
lclavicle -1.45113e-014 -2.78299e-014
lhumerus 27.8178 -20.5274 73.9937
lradius 58.1007
lwrist -22.509
lhand -20.2059 21.0537
lfingers 7.12502
lthumb 6.14106 50.9447
rfemur -58.3964 -13.422 -7.14302
rtibia 109.009
rfoot -20.0713 -2.813
rtoes -22.0796
lfemur -52.3572 23.6337 11.4615
ltibia 113.15
lfoot -26.7435 -5.95983
ltoes -15.0855
285
root 7.57125 10.5763 7.80643 161.479 -3.94235 -178.669
lowerback 32.3919 1.4897 1.82407
upperback 11.7658 -1.15629 -1.30053
thorax -4.29931 -1.97198 -1.99572
lowerneck -15.5307 -3.87632 -4.32678
upperneck 8.70909 -4.82084 4.14636
head 5.35436 -2.21135 1.56075
rclavicle 3.77691e-015 3.4191e-014
rhumerus 25.0049 9.95938 -83.8097
rradius 59.0458
rwrist 26.6294
rhand -22.5428 26.9377
rfingers 7.12502
rthumb 3.88459 -3.00667
lclavicle 3.77691e-015 3.4191e-014
lhumerus 28.2011 -20.1931 74.176
lradius 57.6512
lwrist -22.9185
lhand -20.1919 20.8153
lfingers 7.12502
lthumb 6.15458 50.7059
rfemur -58.1368 -13.5631 -7.24845
rtibia 108.973
rfoot -20.0755 -2.83512
rtoes -22.4193
lfemur -52.3199 23.3994 11.3609
ltibia 113.116
lfoot -26.6189 -5.72118
ltoes -15.1196
286
root 7.57212 10.5717 7.80354 161.46 -4.10228 -178.974
lowerback 32.6194 1.47852 1.63097
upperback 11.7963 -1.2727 -1.46757
thorax -4.37481 -2.04188 -2.02644
lowerneck -15.8768 -3.8315 -4.10132
upperneck 8.74525 -4.79124 4.08828
head 5.41373 -2.18997 1.50395
rclavicle -2.78299e-015 7.95139e-016
rhumerus 25.4239 9.8814 -83.9502
rradius 58.5835
rwrist 26.4079
rhand -22.8152 26.826
rfingers 7.12502
rthumb 3.62152 -3.12294
lclavicle -2.78299e-015 7.95139e-016
lhumerus 28.5932 -20.0742 74.0763
lradius 57.1789
lwrist -23.1058
lhand -20.7151 20.8017
lfingers 7.12502
lthumb 5.64941 50.7064
rfemur -57.9522 -13.7355 -7.7422
rtibia 108.926
rfoot -19.9356 -2.59135
rtoes -22.6389
lfemur -52.3572 23.2563 10.9465
ltibia 113.14
lfoot -26.5287 -5.8708
ltoes -14.1814
287
root 7.57144 10.5697 7.80264 161.432 -4.22075 -179.253
lowerback 32.8241 1.49213 1.45851
upperback 11.7656 -1.32558 -1.60071
thorax -4.50622 -2.07218 -2.0522
lowerneck -15.8108 -3.82224 -4.009
upperneck 8.70475 -4.79846 4.07578
head 5.38806 -2.19246 1.48576
rclavicle -6.16232e-015 -1.35174e-014
rhumerus 25.7384 9.80156 -84.0385
rradius 58.1652
rwrist 26.3415
rhand -23.0193 26.4565
rfingers 7.12502
rthumb 3.42445 -3.49579
lclavicle -6.16232e-015 -1.35174e-014
lhumerus 28.9445 -20.1559 73.9524
lradius 56.692
lwrist -23.0042
lhand -21.4717 21.1421
lfingers 7.12502
lthumb 4.91888 51.065
rfemur -57.9019 -13.8595 -8.16181
rtibia 108.947
rfoot -19.8881 -2.28172
rtoes -21.8879
lfemur -52.3176 23.1822 10.5766
ltibia 113.15
lfoot -26.6551 -6.12977
ltoes -14.1658
288
root 7.56963 10.5729 7.79856 161.489 -4.2242 -179.185
lowerback 32.7967 1.47965 1.51482
upperback 11.7208 -1.29848 -1.54305
thorax -4.54293 -2.05092 -2.02934
lowerneck -15.4764 -3.79508 -4.09234
upperneck 8.50721 -4.74709 4.05385
head 5.27095 -2.17675 1.50313
rclavicle -6.75868e-015 -6.36111e-015
rhumerus 25.9487 9.73269 -83.9917
rradius 57.8122
rwrist 26.3643
rhand -23.1575 26.762
rfingers 7.12502
rthumb 3.29102 -3.19233
lclavicle -6.75868e-015 -6.36111e-015
lhumerus 29.1788 -20.2415 73.9718
lradius 56.335
lwrist -22.7056
lhand -21.7315 21.4506
lfingers 7.12502
lthumb 4.66804 51.3792
rfemur -57.9608 -13.8403 -8.085
rtibia 108.986
rfoot -19.9895 -2.24574
rtoes -20.9904
lfemur -52.3561 23.2277 10.6659
ltibia 113.175
lfoot -26.6642 -6.58856
ltoes -13.1844
289
root 7.56819 10.5756 7.79346 161.524 -4.25163 -179.238
lowerback 32.7579 1.53931 1.42244
upperback 11.7232 -1.24073 -1.46864
thorax -4.51955 -2.02491 -1.91363
lowerneck -15.0473 -3.81405 -4.06126
upperneck 8.09488 -4.75887 3.85529
head 5.06651 -2.20279 1.44371
rclavicle -1.19271e-015 1.19271e-014
rhumerus 26.1514 9.5964 -83.9104
rradius 57.4167
rwrist 26.3832
rhand -23.1648 27.5147
rfingers 7.12502
rthumb 3.28392 -2.43971
lclavicle -1.19271e-015 1.19271e-014
lhumerus 29.2296 -20.3696 73.9817
lradius 56.196
lwrist -22.4672
lhand -21.4955 21.7962
lfingers 7.12502
lthumb 4.89592 51.7197
rfemur -57.926 -13.8337 -8.15932
rtibia 108.977
rfoot -20.071 -2.33473
rtoes -21.1123
lfemur -52.35 23.1811 10.6217
ltibia 113.192
lfoot -26.6032 -6.60232
ltoes -12.203
